<?xml version="1.0" ?><!DOCTYPE svg  PUBLIC '-//W3C//DTD SVG 1.1//EN'  'http://www.w3.org/Graphics/SVG/1.1/DTD/svg11.dtd'><svg height="512px" style="enable-background:new 0 0 512 512;" version="1.1" viewBox="0 0 512 512" width="512px" xml:space="preserve" xmlns="http://www.w3.org/2000/svg" xmlns:xlink="http://www.w3.org/1999/xlink"><g id="_x32_2-apple"><g><path d="M385.911,269.084c-0.205-37.69,16.843-66.137,51.349-87.088    c-19.307-27.625-48.473-42.824-86.982-45.802c-36.458-2.876-76.306,21.258-90.888,21.258c-15.405,0-50.733-20.231-78.461-20.231    c-57.306,0.924-118.205,45.7-118.205,136.794c0,26.906,4.931,54.736,14.789,83.388c13.146,37.689,60.591,130.12,110.09,128.578    c25.881-0.616,44.161-18.384,77.846-18.384c32.657,0,49.603,18.384,78.46,18.384c49.912-0.72,92.84-84.725,105.368-122.519    C382.317,331.937,385.911,271.037,385.911,269.084L385.911,269.084z M327.785,100.455C355.822,67.182,353.256,36.886,352.433,26    c-24.749,1.438-53.403,16.842-69.731,35.84c-17.972,20.335-28.55,45.496-26.29,73.84    C283.215,137.735,307.656,123.973,327.785,100.455z" style="fill:#CCCCCC;"/></g></g><g id="Layer_1"/></svg>